<svg width="54" height="54" viewBox="0 0 54 54" fill="none" xmlns="http://www.w3.org/2000/svg">
<path d="M42.6194 12.5003C39.6683 11.1195 36.5463 10.1381 33.3359 9.58203C32.9354 10.3043 32.4696 11.2785 32.1456 12.0503C28.7356 11.5305 25.2664 11.5305 21.8564 12.0503C21.4988 11.2069 21.097 10.3831 20.6526 9.58203C17.4394 10.139 14.3151 11.1227 11.3624 12.507C5.48763 21.3855 3.89463 30.0435 4.69113 38.5778C8.12049 41.1671 11.9735 43.1412 16.0784 44.412C17.0007 43.1428 17.8165 41.7995 18.5174 40.3958C17.1842 39.8877 15.8989 39.262 14.6766 38.526C14.9984 38.2875 15.3134 38.0378 15.6171 37.7813C23.0219 41.244 31.0656 41.244 38.3826 37.7813C38.6909 38.0378 39.0059 38.2875 39.3231 38.526C38.1059 39.2595 36.8166 39.8895 35.4756 40.398C36.1754 41.8024 36.9912 43.1458 37.9146 44.4143C42.0228 43.1442 45.8784 41.1685 49.3086 38.5755C50.2424 28.6845 47.7134 20.1053 42.6194 12.5003ZM19.5254 33.3285C17.3024 33.3285 15.4799 31.254 15.4799 28.7273C15.4799 26.2005 17.2641 24.1215 19.5254 24.1215C21.7866 24.1215 23.6091 26.196 23.5709 28.7273C23.5731 31.254 21.7866 33.3285 19.5254 33.3285ZM34.4744 33.3285C32.2514 33.3285 30.4289 31.254 30.4289 28.7273C30.4289 26.2005 32.2131 24.1215 34.4744 24.1215C36.7356 24.1215 38.5581 26.196 38.5199 28.7273C38.5199 31.254 36.7356 33.3285 34.4744 33.3285Z" fill="#161618"/>
</svg>
