<svg width="54" height="54" viewBox="0 0 54 54" fill="none" xmlns="http://www.w3.org/2000/svg">
  <path d="M47.1307 18.686C47.108 16.9819 46.789 15.2948 46.1879 13.7C45.6667 12.3549 44.8706 11.1332 43.8505 10.1132C42.8305 9.09307 41.6088 8.297 40.2637 7.77578C38.6894 7.18483 37.0263 6.8653 35.3452 6.83078C33.1807 6.73403 32.4944 6.70703 26.9999 6.70703C21.5054 6.70703 20.8012 6.70703 18.6524 6.83078C16.972 6.86555 15.3097 7.18508 13.7362 7.77578C12.3908 8.29663 11.169 9.09258 10.1488 10.1127C9.12871 11.1328 8.33276 12.3547 7.81191 13.7C7.21978 15.2731 6.90094 16.9358 6.86916 18.6163C6.77241 20.783 6.74316 21.4693 6.74316 26.9638C6.74316 32.4583 6.74316 33.1603 6.86916 35.3113C6.90291 36.9943 7.22016 38.6548 7.81191 40.232C8.33364 41.577 9.13018 42.7983 10.1506 43.818C11.1711 44.8377 12.3931 45.6333 13.7384 46.154C15.3076 46.7687 16.9703 47.1111 18.6547 47.1665C20.8214 47.2633 21.5077 47.2925 27.0022 47.2925C32.4967 47.2925 33.2009 47.2925 35.3497 47.1665C37.0308 47.1334 38.694 46.8146 40.2682 46.2238C41.613 45.702 42.8343 44.9057 43.8543 43.8857C44.8743 42.8657 45.6706 41.6443 46.1924 40.2995C46.7842 38.7245 47.1014 37.064 47.1352 35.3788C47.2319 33.2143 47.2612 32.528 47.2612 27.0313C47.2567 21.5368 47.2567 20.8393 47.1307 18.686V18.686ZM26.9864 37.3543C21.2399 37.3543 16.5847 32.699 16.5847 26.9525C16.5847 21.206 21.2399 16.5508 26.9864 16.5508C29.7451 16.5508 32.3909 17.6467 34.3416 19.5974C36.2923 21.5481 37.3882 24.1938 37.3882 26.9525C37.3882 29.7112 36.2923 32.357 34.3416 34.3077C32.3909 36.2584 29.7451 37.3543 26.9864 37.3543V37.3543ZM37.8022 18.5915C37.4836 18.5918 37.168 18.5293 36.8736 18.4075C36.5792 18.2857 36.3117 18.1071 36.0864 17.8818C35.8611 17.6565 35.6825 17.389 35.5607 17.0946C35.4389 16.8002 35.3764 16.4846 35.3767 16.166C35.3767 15.8477 35.4394 15.5324 35.5612 15.2383C35.683 14.9441 35.8616 14.6769 36.0867 14.4517C36.3119 14.2266 36.5791 14.048 36.8733 13.9262C37.1674 13.8044 37.4827 13.7417 37.801 13.7417C38.1194 13.7417 38.4347 13.8044 38.7288 13.9262C39.0229 14.048 39.2902 14.2266 39.5153 14.4517C39.7405 14.6769 39.919 14.9441 40.0409 15.2383C40.1627 15.5324 40.2254 15.8477 40.2254 16.166C40.2254 17.507 39.1409 18.5915 37.8022 18.5915Z" fill="#161618"/>
  <path d="M26.9867 33.7088C30.7184 33.7088 33.7435 30.6837 33.7435 26.9521C33.7435 23.2204 30.7184 20.1953 26.9867 20.1953C23.2551 20.1953 20.23 23.2204 20.23 26.9521C20.23 30.6837 23.2551 33.7088 26.9867 33.7088Z" fill="#161618"/>
</svg>
