<svg xmlns="http://www.w3.org/2000/svg" width="256" height="256"><path fill-opacity=".016" d="M0 128.004v128.004l128.25-.254 128.25-.254.254-127.75L257.008 0H0v128.004m.485.496c0 70.4.119 99.053.265 63.672.146-35.38.146-92.98 0-128C.604 29.153.485 58.1.485 128.5" fill="#111" fill-rule="evenodd"/><path fill-opacity=".338" d="M112.5 1.119C106.836 2.4 25.738 49.67 19.281 55.455c-3.409 3.053-6.358 6.987-8.5 11.339L7.5 73.458v109.084l3.257 6.615c1.791 3.639 4.97 8.381 7.064 10.539 4.123 4.248 83.906 51.485 92.071 54.512 5.847 2.168 17.567 2.291 23.585.248 6.286-2.134 23.455-12.467 25.266-15.207 1.96-2.964 1.899-11.108-.113-14.997-3.823-7.393-11.928-10.156-33.13-11.292-18.719-1.002-28.329-3.145-40.14-8.948-21.378-10.505-37.829-30.174-44.369-53.051-2.758-9.647-3.681-26.375-2.024-36.69 5.3-32.995 29.722-59.683 63.035-68.882 9.883-2.729 31.009-2.544 41.155.361 20.787 5.952 36.96 17.559 48.279 34.646 10.297 15.546 13.307 25.69 14.568 49.104 1.551 28.787 5.378 35.707 21.011 37.996 3.748.548 4.986.291 7.28-1.513l2.763-2.174-.279-45.155L236.5 73.5l-3.097-6.5c-1.704-3.575-4.866-8.31-7.028-10.522-5.177-5.298-87.715-53.34-94.795-55.177-5.635-1.462-13.108-1.533-19.08-.182m-2 67.837C88.436 73.749 70.966 90.255 64.412 112.5c-2.78 9.434-2.37 23.994.952 33.778 6.324 18.626 19.165 31.796 37.516 38.474 5.292 1.925 9.886 2.603 22.9 3.377 24.896 1.48 37.53 5.429 47.044 14.703 6.003 5.852 9.747 13.424 11.71 23.683 1.881 9.831 4.4 15.184 9.584 20.367 5.83 5.831 11.82 8.39 20.811 8.892 9.949.554 17.168-2.045 23.88-8.6 7.427-7.253 9.695-12.806 9.671-23.674-.016-7.383-.439-9.851-2.354-13.736-4.91-9.965-14.487-16.812-26.14-18.689-13.867-2.233-25.025-10.254-30.815-22.15-4.759-9.776-6.22-16.895-7.169-34.925-1.272-24.182-4.993-34.525-17.036-47.358-10.887-11.6-24.268-17.618-40.466-18.197-5.5-.197-11.8.033-14 .511" fill="#111" fill-rule="evenodd"/><path fill-opacity=".235" d="M196.49 40.016c-.346.559-1.047.758-1.559.441-.512-.316-.931-.107-.931.465 0 .572-1.125 1.322-2.5 1.667s-2.5 1.056-2.5 1.578c0 .523-.45.673-1 .333s-1-.141-1 .441S186.325 46 185.5 46s-1.5.477-1.5 1.059-.45.781-1 .441-1-.115-1 .5-.45.84-1 .5c-.55-.34-1-.141-1 .441S179.325 50 178.5 50s-1.5.477-1.5 1.059-.45.781-1 .441-1-.141-1 .441S174.325 53 173.5 53s-1.5.477-1.5 1.059-.45.781-1 .441-1-.115-1 .5c0 .618-.56.791-1.25.387-.687-.402-.393.247.655 1.441 1.048 1.195 2.398 2.158 3 2.14.602-.017.221-.692-.846-1.5-1.068-.807-1.46-1.468-.873-1.468.588 0 1.629.675 2.314 1.5s.937 1.5.56 1.5c-.376 0 2.663 3.262 6.755 7.25 12.108 11.802 20.429 26.535 24.099 42.673.898 3.947 1.868 12.892 2.155 19.877.837 20.381 2.94 28.675 8.584 33.854 4.356 3.998 15.62 5.696 19.406 2.926 1.871-1.369 1.941-3.028 1.941-46.25V74.5l-3.131-6.609c-4.349-9.177-9.958-14.461-23.585-22.22C203.341 42.002 197.855 39 197.593 39c-.261 0-.758.457-1.103 1.016m.51.377c0 .216.698.661 1.552.989.89.341 1.291.173.941-.393-.587-.951-2.493-1.406-2.493-.596m-59 33.431c-1.925.922-3.651 2.016-3.835 2.432-.185.416-.747.502-1.25.191s-.915-.088-.915.494S131.325 78 130.5 78s-1.5.477-1.5 1.059-.45.781-1 .441-1-.15-1 .422-1.125 1.322-2.5 1.667-2.5 1.056-2.5 1.578c0 .523-.45.673-1 .333s-1-.141-1 .441S119.325 85 118.5 85s-1.5.477-1.5 1.059-.45.781-1 .441-1-.115-1 .5-.45.84-1 .5c-.55-.34-1-.141-1 .441S112.325 89 111.5 89s-1.5.477-1.5 1.059-.45.781-1 .441-1-.141-1 .441S107.325 92 106.5 92s-1.5.477-1.5 1.059-.45.781-1 .441-1-.115-1 .5-.45.84-1 .5c-.55-.34-1-.141-1 .441S100.325 96 99.5 96s-1.5.477-1.5 1.059-.45.781-1 .441-1-.19-1 .333c0 .522-1.125 1.233-2.5 1.578s-2.5 1.095-2.5 1.667c0 .572-.45.762-1 .422s-1-.141-1 .441S88.325 103 87.5 103s-1.5.477-1.5 1.059-.45.781-1 .441-1-.19-1 .333c0 .522-1.125 1.233-2.5 1.578s-2.5 1.095-2.5 1.667c0 .572-.45.762-1 .422s-1-.141-1 .441S76.325 110 75.5 110s-1.5.477-1.5 1.059-.45.781-1 .441-1-.15-1 .422-1.109 1.318-2.464 1.658c-1.355.341-2.755 1.534-3.109 2.652-.446 1.404-.877 1.658-1.393.823-.447-.723-1.001.329-1.38 2.618-2.965 17.949 4.059 38.101 17.846 51.197 12.633 12 26.364 16.998 47 17.108 11.226.06 25.348 2.908 33.023 6.66 7.784 3.805 15.44 10.957 18.756 17.521 1.484 2.937 3.601 9.572 4.704 14.743 2.241 10.508 5.145 16.247 10.678 21.105 6.152 5.402 11.734 7.391 20.839 7.425 10.143.039 16.525-2.614 23.034-9.572 6.721-7.185 8.882-12.63 8.878-22.36-.005-9.847-3.099-17.114-9.994-23.469-5.398-4.975-8.929-6.568-19.209-8.664-19.392-3.954-30.818-15.893-35.624-37.226-.912-4.047-2.04-14.397-2.506-23-.942-17.379-2.725-24.466-8.595-34.153-5.338-8.809-14.824-17.598-23.984-22.221-5.007-2.527-6.849-2.692-10.5-.943M35.93 134.083c-.066 2.244-.132 2.274-.93.417-.473-1.1-.891-1.437-.93-.75-.038.688-.745 1.25-1.57 1.25-.825 0-1.5.477-1.5 1.059s-.45.781-1 .441-1-.19-1 .333c0 .522-1.125 1.233-2.5 1.578s-2.5 1.095-2.5 1.667c0 .572-.45.762-1 .422s-1-.141-1 .441S21.325 142 20.5 142s-1.5.477-1.5 1.059-.45.781-1 .441-1-.15-1 .422-1.125 1.322-2.5 1.667-2.5 1.104-2.5 1.686c0 .582-.263.795-.585.474-.321-.322-1.446.153-2.5 1.055C7.217 150.259 7 151.867 7 163.012c0 18.874 2.998 28.191 11.836 36.778 3.12 3.032 18.472 12.589 46.383 28.876 49.079 28.639 51.589 29.619 66.132 25.831 6.736-1.755 23.627-11.382 26.599-15.161 3.914-4.975 1.878-15.644-3.827-20.056-4.126-3.192-14.611-5.306-30.998-6.25-18.145-1.045-24.81-2.453-35.965-7.598-9.902-4.567-18.259-10.698-26.719-19.604-11.981-12.613-19.044-26.713-22.008-43.932-1.677-9.747-2.383-11.949-2.503-7.813" fill="#111" fill-rule="evenodd"/><path fill-opacity=".189" d="M234.999 120.083c0 .836-1.115 1.482-2.719 1.575-1.495.087-2.883.652-3.085 1.256-.201.604-.777.844-1.28.533-.503-.311-.915-.088-.915.494s-.675 1.059-1.5 1.059-1.5.477-1.5 1.059-.45.781-1 .441-1-.15-1 .422-1.125 1.322-2.5 1.667-2.5 1.056-2.5 1.578c0 .523-.45.673-1 .333s-1-.141-1 .441-.675 1.059-1.5 1.059-1.5.477-1.5 1.059-.403.81-.895.506c-1.085-.671-2.063 1.647-2.223 5.267l-.119 2.668-.836-3c-.583-2.094-.682-1.188-.327 3 1.288 15.2 5.744 22.336 15.216 24.367 2.906.623 6.353 1.133 7.662 1.133 2.721 0 5.47-2.353 5.632-4.821.283-4.303-.345-42.728-.704-43.096-.223-.229-.406.221-.407 1M181.486 152.5l.628 3-1.522-2.5c-.836-1.375-1.537-1.986-1.557-1.358-.019.627-1.16 1.424-2.535 1.769-1.375.345-2.5 1.095-2.5 1.667 0 .572-.45.762-1 .422s-1-.141-1 .441-.675 1.059-1.5 1.059-1.5.477-1.5 1.059-.45.781-1 .441-1-.15-1 .422-1.125 1.322-2.5 1.667-2.5 1.056-2.5 1.578c0 .523-.45.673-1 .333s-1-.141-1 .441-.675 1.059-1.5 1.059-1.5.477-1.5 1.059-.45.781-1 .441-1-.115-1 .5-.45.84-1 .5c-.55-.34-1-.141-1 .441s-.675 1.059-1.5 1.059-1.5.477-1.5 1.059-.45.781-1 .441-1-.141-1 .441-.675 1.059-1.5 1.059-1.5.477-1.5 1.059-.45.781-1 .441-1-.115-1 .5-.45.84-1 .5c-.55-.34-1-.141-1 .441s-.675 1.059-1.5 1.059-1.5.477-1.5 1.059-.45.781-1 .441-1-.19-1 .333c0 .522-1.125 1.233-2.5 1.578s-2.5 1.095-2.5 1.667c0 .572-.45.762-1 .422s-1-.141-1 .441-.675 1.059-1.5 1.059-1.5.477-1.5 1.059-.45.781-1 .441-1-.141-1 .441.563 1.123 1.25 1.201c.688.078-.55.436-2.75.795-3.218.525-1.948.807 6.5 1.443 15.007 1.129 24.475 3.197 32.531 7.103 13.096 6.35 20.099 15.747 23.46 31.477 3.241 15.164 7.205 21.042 17.662 26.19 18.484 9.099 39.547-.707 44.895-20.9 1.839-6.942 1.194-13.71-1.977-20.75-4.791-10.639-11.818-15.796-25.474-18.693-4.728-1.003-10.974-2.985-13.88-4.405-10.373-5.068-19.523-17.54-22.362-30.48-.655-2.982-1.597-5.872-2.093-6.422-.546-.605-.655.186-.276 2m-96.883 55c-1.044.79-2.281 1.199-2.75.909-.469-.29-.853-.05-.853.532 0 .582-.675 1.059-1.5 1.059s-1.5.477-1.5 1.059-.45.781-1 .441-1-.115-1 .5-.45.84-1 .5c-.55-.34-1-.141-1 .441S73.325 214 72.5 214s-1.5.477-1.5 1.059-.45.781-1 .441-1-.141-1 .441S68.357 217 67.571 217c-.785 0-2.135.707-3 1.571-.864.865-1.578 1.202-1.586.75-.009-.451-.346-.345-.75.237s-1.703 1.718-2.886 2.525c-2.054 1.4-1.306 1.963 16.5 12.412 32.291 18.951 32.875 19.252 39.717 20.443 10.092 1.757 17.098.093 29.897-7.101 11.558-6.497 14.528-9.733 14.532-15.837.004-7.248-5.449-13.555-13.877-16.05-1.99-.589-10.593-1.482-19.118-1.985-16.049-.947-27.038-2.842-35.287-6.084-5.61-2.204-4.762-2.159-7.11-.381m-25.038 15.395c-.305.493.096 1.145.89 1.449.963.37 1.258.072.887-.895-.645-1.68-1.011-1.794-1.777-.554" fill="#111" fill-rule="evenodd"/></svg>