<svg width="32" height="32" viewBox="0 0 32 32" fill="none" xmlns="http://www.w3.org/2000/svg">
<mask id="path-1-inside-1_2317_14983" fill="white">
<path fill-rule="evenodd" clip-rule="evenodd" d="M24 16C24 20.4183 20.4183 24 16 24C11.5817 24 8 20.4183 8 16C8 11.5817 11.5817 8 16 8C20.4183 8 24 11.5817 24 16ZM29 16C29 23.1797 23.1797 29 16 29C8.8203 29 3 23.1797 3 16C3 8.8203 8.8203 3 16 3C23.1797 3 29 8.8203 29 16ZM15.8889 12C13.7411 12 12 13.7411 12 15.8889C12 18.0367 13.7411 19.7778 15.8889 19.7778C18.0367 19.7778 19.7778 18.0367 19.7778 15.8889C19.7778 13.7411 18.0367 12 15.8889 12Z"/>
</mask>
<path fill-rule="evenodd" clip-rule="evenodd" d="M24 16C24 20.4183 20.4183 24 16 24C11.5817 24 8 20.4183 8 16C8 11.5817 11.5817 8 16 8C20.4183 8 24 11.5817 24 16ZM29 16C29 23.1797 23.1797 29 16 29C8.8203 29 3 23.1797 3 16C3 8.8203 8.8203 3 16 3C23.1797 3 29 8.8203 29 16ZM15.8889 12C13.7411 12 12 13.7411 12 15.8889C12 18.0367 13.7411 19.7778 15.8889 19.7778C18.0367 19.7778 19.7778 18.0367 19.7778 15.8889C19.7778 13.7411 18.0367 12 15.8889 12Z" fill="#2F3860"/>
<path d="M16 26C21.5228 26 26 21.5228 26 16H22C22 19.3137 19.3137 22 16 22V26ZM6 16C6 21.5228 10.4772 26 16 26V22C12.6863 22 10 19.3137 10 16H6ZM16 6C10.4772 6 6 10.4772 6 16H10C10 12.6863 12.6863 10 16 10V6ZM26 16C26 10.4772 21.5228 6 16 6V10C19.3137 10 22 12.6863 22 16H26ZM16 31C24.2843 31 31 24.2843 31 16H27C27 22.0751 22.0751 27 16 27V31ZM1 16C1 24.2843 7.71573 31 16 31V27C9.92487 27 5 22.0751 5 16H1ZM16 1C7.71573 1 1 7.71573 1 16H5C5 9.92487 9.92487 5 16 5V1ZM31 16C31 7.71573 24.2843 1 16 1V5C22.0751 5 27 9.92487 27 16H31ZM14 15.8889C14 14.8457 14.8457 14 15.8889 14V10C12.6365 10 10 12.6365 10 15.8889H14ZM15.8889 17.7778C14.8457 17.7778 14 16.9321 14 15.8889H10C10 19.1412 12.6365 21.7778 15.8889 21.7778V17.7778ZM17.7778 15.8889C17.7778 16.9321 16.9321 17.7778 15.8889 17.7778V21.7778C19.1412 21.7778 21.7778 19.1412 21.7778 15.8889H17.7778ZM15.8889 14C16.9321 14 17.7778 14.8457 17.7778 15.8889H21.7778C21.7778 12.6365 19.1412 10 15.8889 10V14Z" fill="#2F3860" mask="url(#path-1-inside-1_2317_14983)"/>
</svg>
