<svg width="48" height="48" viewBox="0 0 48 48" fill="none" xmlns="http://www.w3.org/2000/svg">
<path fill-rule="evenodd" clip-rule="evenodd" d="M14.6094 39.7489L20.33 41.2579V39.2846L20.797 38.8203H24.0658V41.1417V42.7667H20.5635L16.2438 40.9096L14.6094 39.7489Z" fill="#CDBDB2"/>
<path fill-rule="evenodd" clip-rule="evenodd" d="M33.2871 39.7489L27.6833 41.2579V39.2846L27.2164 38.8203H23.9475V41.1417V42.7667H27.4498L31.7693 40.9096L33.2871 39.7489Z" fill="#CDBDB2"/>
<path fill-rule="evenodd" clip-rule="evenodd" d="M20.7971 35.4555L20.3301 39.2857L20.9137 38.8214H26.9845L27.6849 39.2857L27.2179 35.4555L26.284 34.875L21.6142 34.9912L20.7971 35.4555Z" fill="#393939"/>
<path fill-rule="evenodd" clip-rule="evenodd" d="M17.6445 9.57031L20.4464 16.0703L21.7307 34.9901H26.2837L27.6846 16.0703L30.253 9.57031H17.6445Z" fill="#F89C35"/>
<path fill-rule="evenodd" clip-rule="evenodd" d="M5.38606 23.8493L2.11719 33.251L10.2894 32.7867H15.5428V28.7243L15.3093 20.3672L14.1418 21.2958L5.38606 23.8493Z" fill="#F89D35"/>
<path fill-rule="evenodd" clip-rule="evenodd" d="M11.5723 24.8926L21.1454 25.1247L20.0948 29.9997L15.5416 28.839L11.5723 24.8926Z" fill="#D87C30"/>
<path fill-rule="evenodd" clip-rule="evenodd" d="M11.5723 25.0078L15.5416 28.7221V32.4364L11.5723 25.0078Z" fill="#EA8D3A"/>
<path fill-rule="evenodd" clip-rule="evenodd" d="M15.543 28.8398L20.2128 30.0006L21.7306 34.9917L20.6798 35.572L15.543 32.5541V28.8398Z" fill="#F89D35"/>
<path fill-rule="evenodd" clip-rule="evenodd" d="M15.5433 32.5547L14.6094 39.7511L20.797 35.4566L15.5433 32.5547Z" fill="#EB8F35"/>
<path fill-rule="evenodd" clip-rule="evenodd" d="M21.146 25.125L21.7298 34.9912L19.9785 29.942L21.146 25.125Z" fill="#EA8E3A"/>
<path fill-rule="evenodd" clip-rule="evenodd" d="M10.1719 32.6709L15.5422 32.5547L14.6082 39.7511L10.1719 32.6709Z" fill="#D87C30"/>
<path fill-rule="evenodd" clip-rule="evenodd" d="M4.68558 42.8842L14.6088 39.7502L10.1725 32.6699L2.11719 33.2502L4.68558 42.8842Z" fill="#EB8F35"/>
<path fill-rule="evenodd" clip-rule="evenodd" d="M20.4449 16.0703L15.425 20.2489L11.5723 24.8917L21.1454 25.2401L20.4449 16.0703Z" fill="#E8821E"/>
<path fill-rule="evenodd" clip-rule="evenodd" d="M14.6094 39.7496L20.797 35.4551L20.33 39.1694V41.2586L16.1272 40.446L14.6094 39.7496Z" fill="#DFCEC3"/>
<path fill-rule="evenodd" clip-rule="evenodd" d="M33.2871 39.7496L27.2164 35.4551L27.6833 39.1694V41.2586L31.8862 40.446L33.2871 39.7496Z" fill="#DFCEC3"/>
<path fill-rule="evenodd" clip-rule="evenodd" d="M18.577 27.2148L19.8613 29.8846L15.3082 28.7239L18.577 27.2148Z" fill="#393939"/>
<path fill-rule="evenodd" clip-rule="evenodd" d="M4.56836 4.11523L20.4457 16.0705L17.7607 9.57049L4.56836 4.11523Z" fill="#E88F35"/>
<path fill-rule="evenodd" clip-rule="evenodd" d="M4.56846 4.11523L2.46704 10.4992L3.63449 17.4634L2.81728 17.9277L3.98473 18.9724L3.05077 19.7849L4.33497 20.9456L3.51775 21.642L5.38567 23.9634L14.1416 21.2938C18.4222 17.889 20.5236 16.148 20.4458 16.0706C20.368 15.9932 15.0755 12.0081 4.56846 4.11523Z" fill="#8E5A30"/>
<path fill-rule="evenodd" clip-rule="evenodd" d="M42.5104 23.8474L45.7793 33.2491L37.6071 32.7848H32.3537V28.7224L32.5872 20.3652L33.7546 21.2938L42.5104 23.8474Z" fill="#F89D35"/>
<path fill-rule="evenodd" clip-rule="evenodd" d="M36.3223 24.8906L26.7492 25.1228L27.7998 29.9978L32.3529 28.8371L36.3223 24.8906Z" fill="#D87C30"/>
<path fill-rule="evenodd" clip-rule="evenodd" d="M36.3223 25.0078L32.3529 28.7221V32.4364L36.3223 25.0078Z" fill="#EA8D3A"/>
<path fill-rule="evenodd" clip-rule="evenodd" d="M32.3535 28.8398L27.6837 30.0006L26.1659 34.9917L27.2167 35.572L32.3535 32.5541V28.8398Z" fill="#F89D35"/>
<path fill-rule="evenodd" clip-rule="evenodd" d="M32.3531 32.5527L33.2871 39.7492L27.2164 35.5706L32.3531 32.5527Z" fill="#EB8F35"/>
<path fill-rule="evenodd" clip-rule="evenodd" d="M26.7505 25.125L26.1667 34.9912L27.918 29.942L26.7505 25.125Z" fill="#EA8E3A"/>
<path fill-rule="evenodd" clip-rule="evenodd" d="M37.7246 32.6689L32.3543 32.5527L33.2883 39.7492L37.7246 32.6689Z" fill="#D87C30"/>
<path fill-rule="evenodd" clip-rule="evenodd" d="M43.2109 42.8823L33.2877 39.7482L37.724 32.668L45.7793 33.2482L43.2109 42.8823Z" fill="#EB8F35"/>
<path fill-rule="evenodd" clip-rule="evenodd" d="M27.4496 16.0703L32.4696 20.2489L36.3223 24.8917L26.7492 25.2401L27.4496 16.0703Z" fill="#E8821E"/>
<path fill-rule="evenodd" clip-rule="evenodd" d="M29.3175 27.2148L28.0332 29.8846L32.5864 28.7239L29.3175 27.2148Z" fill="#393939"/>
<path fill-rule="evenodd" clip-rule="evenodd" d="M43.3281 4.11523L27.4508 16.0705L30.1358 9.57049L43.3281 4.11523Z" fill="#E88F35"/>
<path fill-rule="evenodd" clip-rule="evenodd" d="M43.3283 4.11523L45.4297 10.4992L44.2622 17.4634L45.0795 17.9277L43.912 18.9724L44.846 19.7849L43.5618 20.9456L44.379 21.642L42.5111 23.9634L33.7552 21.2938C29.4745 17.889 27.3731 16.148 27.4509 16.0706C27.5287 15.9932 32.8212 12.0081 43.3283 4.11523Z" fill="#8E5A30"/>
</svg>
