<svg width="32" height="32" viewBox="0 0 32 32" fill="none" xmlns="http://www.w3.org/2000/svg">
<path d="M7.73433 10.5898C12.2987 6.24871 19.7013 6.24871 24.2657 10.5898L24.8145 11.1088C25.0457 11.3262 25.0457 11.6769 24.8145 11.8943L22.9368 13.6826C22.8213 13.7878 22.6407 13.7878 22.5252 13.6826L21.7668 12.9603C18.5819 9.93059 13.4181 9.93059 10.2332 12.9603L9.4243 13.7317C9.30874 13.8369 9.12819 13.8369 9.01264 13.7317L7.12768 11.9504C6.89657 11.733 6.89657 11.3823 7.12768 11.1649L7.73433 10.5898ZM28.1511 14.2857L29.8267 15.8777C30.0578 16.0951 30.0578 16.4458 29.8267 16.6632L22.2796 23.8376C22.0485 24.055 21.6802 24.055 21.4563 23.8376L16.1047 18.7461C16.0469 18.69 15.9531 18.69 15.8953 18.7461L10.5437 23.8376C10.3126 24.055 9.94429 24.055 9.7204 23.8376L2.17333 16.6632C1.94222 16.4458 1.94222 16.0951 2.17333 15.8777L3.84885 14.2857C4.07996 14.0683 4.44828 14.0683 4.67217 14.2857L10.0237 19.3773C10.0815 19.4334 10.1754 19.4334 10.2332 19.3773L15.5847 14.2857C15.8158 14.0683 16.1842 14.0683 16.408 14.2857L21.7596 19.3773C21.8174 19.4334 21.9113 19.4334 21.969 19.3773L27.3206 14.2857C27.5517 14.0683 27.92 14.0683 28.1511 14.2857Z" fill="#3B99FC"/>
</svg>
