<svg width="269" height="55" viewBox="0 0 269 55" fill="none" xmlns="http://www.w3.org/2000/svg">
<path d="M82.8385 33.6255V22.8157H69.8992V33.6255H74.2378C74.2378 33.6255 74.5807 33.616 74.7882 33.7338C74.9799 33.8414 75.1166 34.0148 75.1166 34.0148L76.8878 36.3066C76.8878 36.3066 77.0584 36.5129 77.0476 36.6512C77.0302 36.8612 76.7019 36.8334 76.7019 36.8334H70.161C69.3763 36.8334 68.7152 36.7749 68.1829 36.6512C67.6499 36.5312 67.2188 36.3227 66.8934 36.0241C66.5643 35.7256 66.3322 35.3121 66.1919 34.7838C66.0479 34.2555 65.9785 33.5948 65.9785 32.7987V23.8087C65.9785 23.0147 66.0487 22.354 66.1919 21.825C66.3322 21.2952 66.565 20.8825 66.8934 20.5854C67.2188 20.2883 67.6499 20.0783 68.1829 19.9576C68.7152 19.8354 69.3763 19.7754 70.161 19.7754H82.5767C83.3607 19.7754 84.0196 19.8354 84.5511 19.9576C85.0878 20.0783 85.5181 20.2883 85.8435 20.5854C86.1697 20.8825 86.4055 21.2952 86.5465 21.825C86.6861 22.3547 86.7599 23.0147 86.7599 23.8087V32.7987C86.7599 33.5948 86.6861 34.2555 86.5465 34.7838C86.4055 35.3129 86.1697 35.7256 85.8435 36.0241C85.7112 36.1441 85.5615 36.2524 85.3944 36.3432L88.6237 40.5469C88.824 40.806 88.7785 41.0174 88.521 41.0174H84.9026C84.6459 41.0174 84.2749 40.8067 84.0738 40.5469L79.1117 34.0902C78.9121 33.8297 78.9577 33.6182 79.2144 33.6182L82.8385 33.6255Z" fill="#2F3860"/>
<path d="M193.182 26.5124C193.549 26.5124 193.846 26.8125 193.846 27.1827V28.7362C193.846 29.1079 193.549 29.4079 193.182 29.4079H184.677V33.807H197.65C198.016 33.807 198.313 34.1078 198.313 34.4795V36.1639C198.313 36.5356 198.016 36.8342 197.65 36.8342H181.576C181.209 36.8342 180.913 36.5356 180.913 36.1639V20.4808C180.913 20.1106 181.209 19.8098 181.576 19.8098H197.48C197.846 19.8098 198.143 20.1106 198.143 20.4808V21.994C198.143 22.3643 197.846 22.665 197.48 22.665H184.677V26.5124H193.182Z" fill="#2F3860"/>
<path d="M137.083 20.4366C137.083 20.0649 137.363 19.7656 137.731 19.7656H139.188C139.495 19.7656 139.923 20.1161 140.396 20.5478L153.391 32.0104V20.4959C153.391 20.1256 153.689 19.8249 154.054 19.8249H156.257C156.624 19.8249 156.922 20.1256 156.922 20.4959V36.1556C156.922 36.5273 156.624 36.828 156.257 36.828H154.347C153.911 36.8105 153.42 36.4797 153.278 36.3641L140.628 25.5287V36.1556C140.628 36.5273 140.331 36.828 139.965 36.828H137.764C137.399 36.828 137.084 36.5273 137.084 36.1556L137.083 20.4366Z" fill="#2F3860"/>
<path d="M226.707 23.1657C226.736 22.7216 226.786 22.3425 226.862 22.0089C226.983 21.4703 227.186 21.035 227.481 20.7035C227.775 20.3742 228.183 20.1393 228.704 19.9937C229.226 19.8525 229.879 19.7815 230.661 19.7815H241.331L243.727 19.783C244.094 19.783 244.389 20.0837 244.389 20.454V22.3272C244.389 22.6974 244.094 22.9974 243.727 22.9974H230.48V33.6309H243.727C244.094 33.6309 244.389 33.9331 244.389 34.3026V36.1524C244.389 36.522 244.094 36.8227 243.727 36.8227L230.687 36.8264L230.367 36.8227C229.702 36.8029 229.171 36.732 228.731 36.612C228.208 36.4693 227.801 36.2322 227.507 35.9044C227.212 35.5722 227.008 35.1375 226.888 34.5997C226.768 34.0612 226.707 33.3931 226.707 32.6028L226.707 23.1657Z" fill="#2F3860"/>
<path d="M91.001 20.4974C91.001 20.1272 91.3098 19.8264 91.6758 19.8264H94.249C94.6157 19.8264 94.9122 20.1272 94.9122 20.4974V33.6327H106.041V20.5003C106.041 20.1301 106.337 19.8293 106.704 19.8293H109.284C109.65 19.8293 109.945 20.1301 109.945 20.5003V33.6209C109.913 34.0629 109.851 34.4529 109.762 34.7866C109.619 35.3156 109.386 35.7283 109.062 36.0247C108.733 36.3232 108.304 36.5317 107.772 36.6517C107.24 36.7754 106.581 36.834 105.799 36.834H95.1625C94.3814 36.834 93.7225 36.7754 93.1902 36.6517C92.6579 36.5317 92.2276 36.3232 91.9 36.0247C91.5752 35.7283 91.3423 35.3149 91.1991 34.7866C91.0588 34.2619 91.001 33.5997 91.001 32.8073V20.4974Z" fill="#2F3860"/>
<path d="M219.507 20.4974C219.507 20.1272 219.805 19.8264 220.172 19.8264H222.593C222.96 19.8264 223.257 20.1272 223.257 20.4974V36.182C223.257 36.5537 222.96 36.8544 222.593 36.8544H220.172C219.805 36.8544 219.507 36.5537 219.507 36.182V20.4974Z" fill="#2F3860"/>
<path d="M216.417 33.8068C216.784 33.8068 217.081 34.1075 217.081 34.4792V36.1556C217.081 36.5274 216.784 36.8405 216.417 36.8405H202.226C201.86 36.8405 201.562 36.553 201.562 36.182V20.4974C201.562 20.1272 201.86 19.8264 202.226 19.8264H204.817C205.184 19.8264 205.479 20.1272 205.479 20.4974V33.8068H216.417Z" fill="#2F3860"/>
<path d="M170.834 22.826V36.1822C170.834 36.5539 170.537 36.8547 170.17 36.8547H167.58C167.213 36.8547 166.916 36.5539 166.916 36.1822V22.826H159.864C159.498 22.826 159.201 22.526 159.201 22.1557V20.4808C159.201 20.1106 159.498 19.8098 159.864 19.8098H177.949C178.315 19.8098 178.613 20.1106 178.613 20.4808V22.1557C178.613 22.526 178.315 22.826 177.949 22.826H170.834Z" fill="#2F3860"/>
<path d="M119.534 30.0264H121.226L126.923 30.0286L123.255 23.097L119.534 30.0264ZM117.89 33.0909L116.24 36.1627C116.028 36.5329 115.559 36.833 115.192 36.833H112.624C112.258 36.833 112.134 36.5329 112.346 36.1627L121.11 20.4781C121.317 20.1166 121.766 19.8218 122.128 19.8071H124.618C124.984 19.8071 125.453 20.1079 125.666 20.4781L134.553 36.1627C134.764 36.5329 134.641 36.833 134.274 36.833H131.217C130.851 36.833 130.382 36.5329 130.169 36.1627L128.544 33.0909H117.89Z" fill="#2F3860"/>
<path d="M253.88 30.0264H255.571L261.269 30.0286L257.601 23.097L253.88 30.0264ZM252.234 33.0909L250.585 36.1627C250.371 36.5329 249.904 36.833 249.537 36.833H246.969C246.602 36.833 246.478 36.5329 246.69 36.1627L255.453 20.4781C255.661 20.1166 256.11 19.8218 256.471 19.8071H258.962C259.329 19.8071 259.796 20.1079 260.01 20.4781L268.896 36.1627C269.109 36.5329 268.984 36.833 268.618 36.833H265.561C265.195 36.833 264.725 36.5329 264.513 36.1627L262.887 33.0909H252.234Z" fill="#2F3860"/>
<path d="M38.0522 48.5919C36.809 40.81 28.8895 40.4053 24.7208 40.3936C17.584 40.3958 11.8784 34.6225 11.8784 27.5006C11.8784 20.3794 17.584 14.6068 24.6232 14.6068C31.606 14.6068 37.2791 20.2894 37.3673 27.333L37.3615 27.895C37.347 32.128 37.995 39.8514 45.4487 41.0851C49.0027 41.3602 51.8009 44.3654 51.8009 48.0314C51.8009 51.8795 48.7177 54.9974 44.9157 54.9974C41.2995 54.9974 38.3342 52.1774 38.0522 48.5919ZM32.7943 49.2951C32.9606 50.6459 32.492 51.4178 32.1398 51.7954C31.891 52.0296 31.3196 52.3632 31.3196 52.3632L28.3464 54.1011C26.291 55.3004 22.9597 55.3004 20.905 54.0967L3.72248 44.0523C1.66778 42.8515 0.00144591 39.9304 0.00144591 37.5289L2.35442e-07 17.4525C-0.000722998 15.0503 1.66488 12.1321 3.71958 10.9314L20.9 0.899386C22.954 -0.300647 26.2859 -0.299917 28.3406 0.902311L45.5232 10.9482C47.5779 12.1482 49.2442 15.0693 49.2442 17.4701L49.245 34.3466C49.2384 36.015 47.9373 36.0486 47.3313 35.9777C47.1468 35.9542 46.1444 35.7654 46.1444 35.7654C44.651 35.4706 43.9899 34.7337 43.4858 33.5264C42.8328 31.9656 42.657 29.9021 42.6606 27.9586L42.6657 27.2635C42.5406 17.2886 34.5098 9.244 24.6225 9.244C14.6563 9.244 6.57852 17.4174 6.57852 27.4999C6.57852 37.5816 14.7409 45.7565 24.7064 45.7565C26.756 45.7609 28.878 45.894 30.5132 46.557C31.7572 47.0611 32.5043 47.7233 32.7943 49.2951Z" fill="url(#paint0_linear_2007_4333)"/>
<defs>
<linearGradient id="paint0_linear_2007_4333" x1="12.3022" y1="5.90964" x2="42.4419" y2="57.5152" gradientUnits="userSpaceOnUse">
<stop stop-color="#48C7FC"/>
<stop offset="0.4694" stop-color="#4F83F5"/>
<stop offset="1" stop-color="#7036BE"/>
</linearGradient>
</defs>
</svg>
